M48
; DRILL file {KiCad (6.0.10)} date Thu Jan 19 14:07:25 2023
; FORMAT={-:-/ absolute / inch / decimal}
; #@! TF.CreationDate,2023-01-19T14:07:25+05:30
; #@! TF.GenerationSoftware,Kicad,Pcbnew,(6.0.10)
; #@! TF.FileFunction,Plated,1,2,PTH
FMAT,2
INCH
; #@! TA.AperFunction,Plated,PTH,ViaDrill
T1C0.0354
; #@! TA.AperFunction,Plated,PTH,ComponentDrill
T2C0.0354
%
G90
G05
T1
X6.7Y-2.75
X7.6Y-2.75
X9.6803Y-2.4106
T2
X3.825Y-2.325
X3.825Y-2.825
X4.125Y-2.325
X4.125Y-2.825
X4.65Y-2.175
X4.65Y-2.45
X4.65Y-2.725
X4.65Y-3.025
X5.05Y-2.175
X5.05Y-2.45
X5.05Y-2.725
X5.05Y-3.025
X5.35Y-2.1
X5.3793Y-3.025
X5.45Y-2.1
X5.45Y-2.5037
X5.45Y-2.6021
X5.4777Y-3.025
X5.55Y-2.1
X5.85Y-3.025
X5.85Y-3.1037
X5.9Y-2.025
X5.9Y-2.1037
X5.9Y-2.525
X5.9Y-2.6037
X6.4803Y-2.0213
X6.4803Y-2.1
X6.4803Y-2.5213
X6.4803Y-2.6
X6.4803Y-3.0213
X6.4803Y-3.1
X6.4819Y-1.5706
X6.5803Y-1.5706
X6.6787Y-1.5706
X7.0819Y-1.5706
X7.1803Y-1.5706
X7.2787Y-1.5706
X7.2803Y-2.0594
X7.2803Y-3.1618
X7.3803Y-2.0594
X7.3803Y-3.1618
X7.4803Y-2.0594
X7.4803Y-3.1618
X7.5803Y-2.0594
X7.5803Y-3.1618
X7.6803Y-2.0594
X7.6803Y-3.1618
X7.7803Y-2.0594
X7.7803Y-3.1618
X7.8803Y-2.0594
X7.8803Y-3.1618
X7.9803Y-2.0594
X7.9803Y-3.1618
X8.0803Y-2.0594
X8.0803Y-3.1618
X8.1803Y-2.0594
X8.1803Y-3.1618
X8.1809Y-1.5906
X8.2597Y-1.5906
X8.2803Y-2.0594
X8.2803Y-3.1618
X8.3803Y-2.0594
X8.3803Y-3.1618
X8.4803Y-2.0594
X8.4803Y-3.1618
X8.5803Y-2.0594
X8.5803Y-3.1618
X8.6703Y-1.5506
X8.6803Y-2.0594
X8.6803Y-3.1618
X8.9703Y-1.5506
X9.4569Y-2.6382
X9.4569Y-2.835
X9.4614Y-1.9306
X9.5402Y-1.6944
X9.5402Y-2.1669
X9.6537Y-2.7366
X10.0205Y-1.6944
X10.0205Y-2.1669
T0
M30
