%TF.GenerationSoftware,KiCad,Pcbnew,(6.0.10)*%
%TF.CreationDate,2023-01-19T14:06:35+05:30*%
%TF.ProjectId,KiCad PCB 11 - EE356 PCB 9 (2023-01-19),4b694361-6420-4504-9342-203131202d20,rev?*%
%TF.SameCoordinates,Original*%
%TF.FileFunction,Soldermask,Bot*%
%TF.FilePolarity,Negative*%
%FSLAX46Y46*%
G04 Gerber Fmt 4.6, Leading zero omitted, Abs format (unit mm)*
G04 Created by KiCad (PCBNEW (6.0.10)) date 2023-01-19 14:06:35*
%MOMM*%
%LPD*%
G01*
G04 APERTURE LIST*
%ADD10R,1.320800X1.320800*%
%ADD11C,1.320800*%
%ADD12C,4.300000*%
%ADD13R,2.200000X2.200000*%
%ADD14O,2.200000X2.200000*%
%ADD15R,1.905000X2.000000*%
%ADD16O,1.905000X2.000000*%
%ADD17R,1.600000X1.600000*%
%ADD18O,1.600000X1.600000*%
%ADD19R,1.408000X1.408000*%
%ADD20C,1.408000*%
%ADD21C,2.340000*%
%ADD22R,1.980000X1.980000*%
%ADD23C,1.980000*%
%ADD24C,1.935000*%
%ADD25C,1.530000*%
%ADD26R,1.530000X1.530000*%
%ADD27C,3.250000*%
%ADD28R,1.520000X1.520000*%
%ADD29C,1.520000*%
%ADD30C,1.600000*%
G04 APERTURE END LIST*
D10*
%TO.C,water_pump1*%
X207796000Y-40402000D03*
D11*
X209796000Y-40402000D03*
%TD*%
D10*
%TO.C,Pump_pin1*%
X164600000Y-64040000D03*
D11*
X164600000Y-66040000D03*
%TD*%
D10*
%TO.C,P1*%
X148590000Y-78835000D03*
D11*
X148590000Y-76835000D03*
%TD*%
D12*
%TO.C,REF\u002A\u002A*%
X101600000Y-46990000D03*
%TD*%
D10*
%TO.C,Node_pin1*%
X164600000Y-76740000D03*
D11*
X164600000Y-78740000D03*
%TD*%
D13*
%TO.C,D2*%
X118110000Y-69215000D03*
D14*
X128270000Y-69215000D03*
%TD*%
D12*
%TO.C,REF\u002A\u002A*%
X101600000Y-83820000D03*
%TD*%
D10*
%TO.C,P2*%
X149860000Y-51435000D03*
D11*
X149860000Y-53435000D03*
%TD*%
D10*
%TO.C,sensor_pin1*%
X164600000Y-51340000D03*
D11*
X164600000Y-53340000D03*
%TD*%
D12*
%TO.C,REF\u002A\u002A*%
X256540000Y-85090000D03*
%TD*%
D15*
%TO.C,U1R1*%
X135890000Y-53340000D03*
D16*
X138430000Y-53340000D03*
X140970000Y-53340000D03*
%TD*%
D12*
%TO.C,REF\u002A\u002A*%
X124460000Y-41910000D03*
%TD*%
D17*
%TO.C,protection_diode1*%
X227846000Y-39386000D03*
D18*
X220226000Y-39386000D03*
%TD*%
D13*
%TO.C,D1*%
X118110000Y-76835000D03*
D14*
X128270000Y-76835000D03*
%TD*%
D19*
%TO.C,Sensor1*%
X179880000Y-39894000D03*
D20*
X182380000Y-39894000D03*
X184880000Y-39894000D03*
%TD*%
D13*
%TO.C,D3*%
X118110000Y-55245000D03*
D14*
X128270000Y-55245000D03*
%TD*%
D21*
%TO.C,pot1*%
X240205000Y-67010000D03*
X245205000Y-69510000D03*
X240205000Y-72010000D03*
%TD*%
D22*
%TO.C,K1*%
X242320000Y-43038000D03*
D23*
X242320000Y-55038000D03*
D24*
X240320000Y-49038000D03*
D23*
X254520000Y-43038000D03*
X254520000Y-55038000D03*
%TD*%
D19*
%TO.C,Sensor2*%
X164640000Y-39894000D03*
D20*
X167140000Y-39894000D03*
X169640000Y-39894000D03*
%TD*%
D10*
%TO.C,P3*%
X149860000Y-64135000D03*
D11*
X149860000Y-66135000D03*
%TD*%
D12*
%TO.C,REF\u002A\u002A*%
X258580000Y-33290000D03*
%TD*%
D25*
%TO.C,U1*%
X184920000Y-52310000D03*
X187460000Y-52310000D03*
X190000000Y-52310000D03*
X192540000Y-52310000D03*
X195080000Y-52310000D03*
X197620000Y-52310000D03*
X200160000Y-52310000D03*
X202700000Y-52310000D03*
X205240000Y-52310000D03*
X207780000Y-52310000D03*
X210320000Y-52310000D03*
X212860000Y-52310000D03*
X215400000Y-52310000D03*
X217940000Y-52310000D03*
X220480000Y-52310000D03*
X220480000Y-80310000D03*
X217940000Y-80310000D03*
X215400000Y-80310000D03*
X212860000Y-80310000D03*
X210320000Y-80310000D03*
X207780000Y-80310000D03*
X205240000Y-80310000D03*
X202700000Y-80310000D03*
X200160000Y-80310000D03*
X197620000Y-80310000D03*
X195080000Y-80310000D03*
X192540000Y-80310000D03*
X190000000Y-80310000D03*
X187460000Y-80310000D03*
D26*
X184920000Y-80310000D03*
D27*
X176700000Y-53810000D03*
X228700000Y-53810000D03*
X176700000Y-78810000D03*
X228700000Y-78810000D03*
%TD*%
D13*
%TO.C,D4*%
X118110000Y-62230000D03*
D14*
X128270000Y-62230000D03*
%TD*%
D28*
%TO.C,T1*%
X97155000Y-59055000D03*
D29*
X104775000Y-59055000D03*
X104775000Y-71755000D03*
X97155000Y-71755000D03*
%TD*%
D17*
%TO.C,C1*%
X136633606Y-76835000D03*
D30*
X139133606Y-76835000D03*
%TD*%
D17*
%TO.C,C2*%
X138430000Y-63593848D03*
D30*
X138430000Y-66093848D03*
%TD*%
D12*
%TO.C,REF\u002A\u002A*%
X196850000Y-34290000D03*
%TD*%
M02*
