%TF.GenerationSoftware,KiCad,Pcbnew,(6.0.10)*%
%TF.CreationDate,2023-01-19T14:06:35+05:30*%
%TF.ProjectId,KiCad PCB 11 - EE356 PCB 9 (2023-01-19),4b694361-6420-4504-9342-203131202d20,rev?*%
%TF.SameCoordinates,Original*%
%TF.FileFunction,Copper,L2,Bot*%
%TF.FilePolarity,Positive*%
%FSLAX46Y46*%
G04 Gerber Fmt 4.6, Leading zero omitted, Abs format (unit mm)*
G04 Created by KiCad (PCBNEW (6.0.10)) date 2023-01-19 14:06:35*
%MOMM*%
%LPD*%
G01*
G04 APERTURE LIST*
%TA.AperFunction,ComponentPad*%
%ADD10R,1.320800X1.320800*%
%TD*%
%TA.AperFunction,ComponentPad*%
%ADD11C,1.320800*%
%TD*%
%TA.AperFunction,ComponentPad*%
%ADD12R,2.200000X2.200000*%
%TD*%
%TA.AperFunction,ComponentPad*%
%ADD13O,2.200000X2.200000*%
%TD*%
%TA.AperFunction,ComponentPad*%
%ADD14R,1.905000X2.000000*%
%TD*%
%TA.AperFunction,ComponentPad*%
%ADD15O,1.905000X2.000000*%
%TD*%
%TA.AperFunction,ComponentPad*%
%ADD16R,1.600000X1.600000*%
%TD*%
%TA.AperFunction,ComponentPad*%
%ADD17O,1.600000X1.600000*%
%TD*%
%TA.AperFunction,ComponentPad*%
%ADD18R,1.408000X1.408000*%
%TD*%
%TA.AperFunction,ComponentPad*%
%ADD19C,1.408000*%
%TD*%
%TA.AperFunction,ComponentPad*%
%ADD20C,2.340000*%
%TD*%
%TA.AperFunction,ComponentPad*%
%ADD21R,1.980000X1.980000*%
%TD*%
%TA.AperFunction,ComponentPad*%
%ADD22C,1.980000*%
%TD*%
%TA.AperFunction,ComponentPad*%
%ADD23C,1.935000*%
%TD*%
%TA.AperFunction,ComponentPad*%
%ADD24C,1.530000*%
%TD*%
%TA.AperFunction,ComponentPad*%
%ADD25R,1.530000X1.530000*%
%TD*%
%TA.AperFunction,ComponentPad*%
%ADD26R,1.520000X1.520000*%
%TD*%
%TA.AperFunction,ComponentPad*%
%ADD27C,1.520000*%
%TD*%
%TA.AperFunction,ComponentPad*%
%ADD28C,1.600000*%
%TD*%
%TA.AperFunction,ViaPad*%
%ADD29C,1.200000*%
%TD*%
%TA.AperFunction,Conductor*%
%ADD30C,1.000000*%
%TD*%
G04 APERTURE END LIST*
D10*
%TO.P,water_pump1,1*%
%TO.N,Net-(K1-PadCOM)*%
X207796000Y-40402000D03*
D11*
%TO.P,water_pump1,2*%
%TO.N,Net-(Pump_pin1-Pad1)*%
X209796000Y-40402000D03*
%TD*%
D10*
%TO.P,Pump_pin1,1*%
%TO.N,Net-(Pump_pin1-Pad1)*%
X164600000Y-64040000D03*
D11*
%TO.P,Pump_pin1,2*%
%TO.N,Net-(K1-PadNO)*%
X164600000Y-66040000D03*
%TD*%
D10*
%TO.P,P1,1*%
%TO.N,Net-(C2-Pad1)*%
X148590000Y-78835000D03*
D11*
%TO.P,P1,2*%
%TO.N,Net-(C1-Pad2)*%
X148590000Y-76835000D03*
%TD*%
D10*
%TO.P,Node_pin1,1*%
%TO.N,/GND*%
X164600000Y-76740000D03*
D11*
%TO.P,Node_pin1,2*%
%TO.N,Net-(Node_pin1-Pad2)*%
X164600000Y-78740000D03*
%TD*%
D12*
%TO.P,D2,1,K*%
%TO.N,Net-(C1-Pad1)*%
X118110000Y-69215000D03*
D13*
%TO.P,D2,2,A*%
%TO.N,Net-(D1-Pad1)*%
X128270000Y-69215000D03*
%TD*%
D10*
%TO.P,P2,1*%
%TO.N,Net-(C2-Pad1)*%
X149860000Y-51435000D03*
D11*
%TO.P,P2,2*%
%TO.N,Net-(C1-Pad2)*%
X149860000Y-53435000D03*
%TD*%
D10*
%TO.P,sensor_pin1,1*%
%TO.N,Net-(Sensor1-Pad1)*%
X164600000Y-51340000D03*
D11*
%TO.P,sensor_pin1,2*%
%TO.N,Net-(Sensor1-Pad2)*%
X164600000Y-53340000D03*
%TD*%
D14*
%TO.P,U1R1,1,IN*%
%TO.N,Net-(C1-Pad1)*%
X135890000Y-53340000D03*
D15*
%TO.P,U1R1,2,GND*%
%TO.N,Net-(C1-Pad2)*%
X138430000Y-53340000D03*
%TO.P,U1R1,3,OUT*%
%TO.N,Net-(C2-Pad1)*%
X140970000Y-53340000D03*
%TD*%
D16*
%TO.P,protection_diode1,1,K*%
%TO.N,/D1*%
X227846000Y-39386000D03*
D17*
%TO.P,protection_diode1,2,A*%
%TO.N,/GND*%
X220226000Y-39386000D03*
%TD*%
D12*
%TO.P,D1,1,K*%
%TO.N,Net-(D1-Pad1)*%
X118110000Y-76835000D03*
D13*
%TO.P,D1,2,A*%
%TO.N,Net-(C1-Pad2)*%
X128270000Y-76835000D03*
%TD*%
D18*
%TO.P,Sensor1,1*%
%TO.N,Net-(Sensor1-Pad1)*%
X179880000Y-39894000D03*
D19*
%TO.P,Sensor1,2*%
%TO.N,Net-(Sensor1-Pad2)*%
X182380000Y-39894000D03*
%TO.P,Sensor1,3*%
%TO.N,/D0*%
X184880000Y-39894000D03*
%TD*%
D12*
%TO.P,D3,1,K*%
%TO.N,Net-(D3-Pad1)*%
X118110000Y-55245000D03*
D13*
%TO.P,D3,2,A*%
%TO.N,Net-(C1-Pad2)*%
X128270000Y-55245000D03*
%TD*%
D20*
%TO.P,pot1,1,1*%
%TO.N,Net-(Node_pin1-Pad2)*%
X240205000Y-67010000D03*
%TO.P,pot1,2,2*%
%TO.N,/Vin*%
X245205000Y-69510000D03*
%TO.P,pot1,3,3*%
%TO.N,/GND*%
X240205000Y-72010000D03*
%TD*%
D21*
%TO.P,K1,A1*%
%TO.N,/D1*%
X242320000Y-43038000D03*
D22*
%TO.P,K1,A2*%
%TO.N,/GND*%
X242320000Y-55038000D03*
D23*
%TO.P,K1,COM*%
%TO.N,Net-(K1-PadCOM)*%
X240320000Y-49038000D03*
D22*
%TO.P,K1,NC*%
%TO.N,unconnected-(K1-PadNC)*%
X254520000Y-43038000D03*
%TO.P,K1,NO*%
%TO.N,Net-(K1-PadNO)*%
X254520000Y-55038000D03*
%TD*%
D18*
%TO.P,Sensor2,1*%
%TO.N,Net-(Sensor1-Pad1)*%
X164640000Y-39894000D03*
D19*
%TO.P,Sensor2,2*%
%TO.N,Net-(Sensor1-Pad2)*%
X167140000Y-39894000D03*
%TO.P,Sensor2,3*%
%TO.N,/A0*%
X169640000Y-39894000D03*
%TD*%
D10*
%TO.P,P3,1*%
%TO.N,Net-(C2-Pad1)*%
X149860000Y-64135000D03*
D11*
%TO.P,P3,2*%
%TO.N,Net-(C1-Pad2)*%
X149860000Y-66135000D03*
%TD*%
D24*
%TO.P,U1,30,D0*%
%TO.N,/D0*%
X184920000Y-52310000D03*
%TO.P,U1,29,D1*%
%TO.N,/D1*%
X187460000Y-52310000D03*
%TO.P,U1,28,D2*%
%TO.N,unconnected-(U1-Pad28)*%
X190000000Y-52310000D03*
%TO.P,U1,27,D3*%
%TO.N,unconnected-(U1-Pad27)*%
X192540000Y-52310000D03*
%TO.P,U1,26,D4*%
%TO.N,unconnected-(U1-Pad26)*%
X195080000Y-52310000D03*
%TO.P,U1,25,3V3*%
%TO.N,Net-(U1-Pad11)*%
X197620000Y-52310000D03*
%TO.P,U1,24,GND*%
%TO.N,/GND*%
X200160000Y-52310000D03*
%TO.P,U1,23,D5*%
%TO.N,unconnected-(U1-Pad23)*%
X202700000Y-52310000D03*
%TO.P,U1,22,D6*%
%TO.N,unconnected-(U1-Pad22)*%
X205240000Y-52310000D03*
%TO.P,U1,21,D7*%
%TO.N,unconnected-(U1-Pad21)*%
X207780000Y-52310000D03*
%TO.P,U1,20,D8*%
%TO.N,unconnected-(U1-Pad20)*%
X210320000Y-52310000D03*
%TO.P,U1,19,D9*%
%TO.N,unconnected-(U1-Pad19)*%
X212860000Y-52310000D03*
%TO.P,U1,18,D10*%
%TO.N,unconnected-(U1-Pad18)*%
X215400000Y-52310000D03*
%TO.P,U1,17,GND*%
%TO.N,/GND*%
X217940000Y-52310000D03*
%TO.P,U1,16,3V3*%
%TO.N,Net-(U1-Pad11)*%
X220480000Y-52310000D03*
%TO.P,U1,15,5V*%
%TO.N,/Vin*%
X220480000Y-80310000D03*
%TO.P,U1,14,GND*%
%TO.N,/GND*%
X217940000Y-80310000D03*
%TO.P,U1,13,RST*%
%TO.N,unconnected-(U1-Pad13)*%
X215400000Y-80310000D03*
%TO.P,U1,12,EN*%
%TO.N,unconnected-(U1-Pad12)*%
X212860000Y-80310000D03*
%TO.P,U1,11,3V3*%
%TO.N,Net-(U1-Pad11)*%
X210320000Y-80310000D03*
%TO.P,U1,10,GND*%
%TO.N,/GND*%
X207780000Y-80310000D03*
%TO.P,U1,9,3V3*%
%TO.N,Net-(U1-Pad11)*%
X205240000Y-80310000D03*
%TO.P,U1,8,GND*%
%TO.N,/GND*%
X202700000Y-80310000D03*
%TO.P,U1,7,RSV*%
%TO.N,unconnected-(U1-Pad7)*%
X200160000Y-80310000D03*
%TO.P,U1,6,RSV*%
%TO.N,unconnected-(U1-Pad6)*%
X197620000Y-80310000D03*
%TO.P,U1,5,RSV*%
%TO.N,unconnected-(U1-Pad5)*%
X195080000Y-80310000D03*
%TO.P,U1,4,RSV*%
%TO.N,unconnected-(U1-Pad4)*%
X192540000Y-80310000D03*
%TO.P,U1,3,RSV*%
%TO.N,unconnected-(U1-Pad3)*%
X190000000Y-80310000D03*
%TO.P,U1,2,RSV*%
%TO.N,unconnected-(U1-Pad2)*%
X187460000Y-80310000D03*
D25*
%TO.P,U1,1,A0*%
%TO.N,/A0*%
X184920000Y-80310000D03*
%TD*%
D12*
%TO.P,D4,1,K*%
%TO.N,Net-(C1-Pad1)*%
X118110000Y-62230000D03*
D13*
%TO.P,D4,2,A*%
%TO.N,Net-(D3-Pad1)*%
X128270000Y-62230000D03*
%TD*%
D26*
%TO.P,T1,1,AA*%
%TO.N,unconnected-(T1-Pad1)*%
X97155000Y-59055000D03*
D27*
%TO.P,T1,3,SA*%
%TO.N,Net-(D3-Pad1)*%
X104775000Y-59055000D03*
%TO.P,T1,4,SB*%
%TO.N,Net-(D1-Pad1)*%
X104775000Y-71755000D03*
%TO.P,T1,6*%
%TO.N,N/C*%
X97155000Y-71755000D03*
%TD*%
D16*
%TO.P,C1,1*%
%TO.N,Net-(C1-Pad1)*%
X136633606Y-76835000D03*
D28*
%TO.P,C1,2*%
%TO.N,Net-(C1-Pad2)*%
X139133606Y-76835000D03*
%TD*%
D16*
%TO.P,C2,1*%
%TO.N,Net-(C2-Pad1)*%
X138430000Y-63593848D03*
D28*
%TO.P,C2,2*%
%TO.N,Net-(C1-Pad2)*%
X138430000Y-66093848D03*
%TD*%
D29*
%TO.N,Net-(K1-PadNO)*%
X170180000Y-69850000D03*
X193040000Y-69850000D03*
X245880000Y-61230000D03*
%TD*%
D30*
%TO.N,Net-(Pump_pin1-Pad1)*%
X208280000Y-46990000D02*
X209796000Y-45474000D01*
X173990000Y-46990000D02*
X208280000Y-46990000D01*
X168370000Y-64040000D02*
X171450000Y-60960000D01*
X164600000Y-64040000D02*
X168370000Y-64040000D01*
X171450000Y-49530000D02*
X173990000Y-46990000D01*
X209796000Y-45474000D02*
X209796000Y-40402000D01*
X171450000Y-60960000D02*
X171450000Y-49530000D01*
%TO.N,Net-(K1-PadCOM)*%
X207796000Y-36830000D02*
X207796000Y-40402000D01*
X209066000Y-35560000D02*
X207796000Y-36830000D01*
X237002000Y-45720000D02*
X219710000Y-45720000D01*
X215900000Y-36830000D02*
X214630000Y-35560000D01*
X219710000Y-45720000D02*
X215900000Y-41910000D01*
X215900000Y-41910000D02*
X215900000Y-36830000D01*
X240320000Y-49038000D02*
X237002000Y-45720000D01*
X214630000Y-35560000D02*
X209066000Y-35560000D01*
%TO.N,Net-(K1-PadNO)*%
X248328000Y-61230000D02*
X254520000Y-55038000D01*
X245880000Y-61230000D02*
X248328000Y-61230000D01*
X170180000Y-69850000D02*
X193040000Y-69850000D01*
%TO.N,/GND*%
X217940000Y-80310000D02*
X223320000Y-74930000D01*
X203700000Y-85090000D02*
X202700000Y-84090000D01*
X214630000Y-57150000D02*
X203200000Y-57150000D01*
X206510000Y-85090000D02*
X203700000Y-85090000D01*
X200160000Y-54110000D02*
X200160000Y-52310000D01*
X237285000Y-74930000D02*
X240205000Y-72010000D01*
X217940000Y-53840000D02*
X214630000Y-57150000D01*
X207780000Y-80310000D02*
X207780000Y-83820000D01*
X223320000Y-74930000D02*
X237285000Y-74930000D01*
X202700000Y-84090000D02*
X202700000Y-80310000D01*
X207780000Y-83820000D02*
X206510000Y-85090000D01*
X203200000Y-57150000D02*
X200160000Y-54110000D01*
X217940000Y-52310000D02*
X217940000Y-53840000D01*
%TO.N,/Vin*%
X222250000Y-83820000D02*
X220480000Y-82050000D01*
X245205000Y-69510000D02*
X245205000Y-71164629D01*
X245205000Y-71164629D02*
X245110000Y-71259629D01*
X242570000Y-83820000D02*
X222250000Y-83820000D01*
X220480000Y-82050000D02*
X220480000Y-80310000D01*
X245110000Y-81280000D02*
X242570000Y-83820000D01*
X245110000Y-71259629D02*
X245110000Y-81280000D01*
%TO.N,Net-(U1-Pad11)*%
X197620000Y-64270000D02*
X205240000Y-71890000D01*
X205240000Y-76700000D02*
X205240000Y-80310000D01*
X210320000Y-77740000D02*
X208780000Y-76200000D01*
X197620000Y-52310000D02*
X197620000Y-64270000D01*
X210320000Y-80310000D02*
X210320000Y-77740000D01*
X205240000Y-71890000D02*
X205240000Y-80310000D01*
X208780000Y-76200000D02*
X205740000Y-76200000D01*
X205740000Y-76200000D02*
X205240000Y-76700000D01*
%TO.N,Net-(C1-Pad1)*%
X135255000Y-76835000D02*
X136633606Y-76835000D01*
X133350000Y-74930000D02*
X135255000Y-76835000D01*
X130810000Y-58420000D02*
X135890000Y-53340000D01*
X118110000Y-62230000D02*
X121920000Y-58420000D01*
X135890000Y-53340000D02*
X133350000Y-55880000D01*
X121920000Y-58420000D02*
X130810000Y-58420000D01*
X133350000Y-55880000D02*
X133350000Y-74930000D01*
%TO.N,Net-(C2-Pad1)*%
X149860000Y-51435000D02*
X142875000Y-51435000D01*
X140970000Y-61053848D02*
X138430000Y-63593848D01*
X146145000Y-78835000D02*
X144780000Y-77470000D01*
X146685000Y-51435000D02*
X149860000Y-51435000D01*
X144780000Y-66040000D02*
X146685000Y-64135000D01*
X144780000Y-60960000D02*
X144780000Y-53340000D01*
X144780000Y-77470000D02*
X144780000Y-66040000D01*
X149860000Y-64135000D02*
X147955000Y-64135000D01*
X142875000Y-51435000D02*
X140970000Y-53340000D01*
X144780000Y-53340000D02*
X146685000Y-51435000D01*
X148590000Y-78835000D02*
X146145000Y-78835000D01*
X147955000Y-64135000D02*
X144780000Y-60960000D01*
X140970000Y-53340000D02*
X140970000Y-61053848D01*
X146685000Y-64135000D02*
X149860000Y-64135000D01*
%TO.N,Net-(Sensor1-Pad2)*%
X167140000Y-41410000D02*
X167140000Y-39894000D01*
X168910000Y-43180000D02*
X167140000Y-41410000D01*
X167140000Y-52020800D02*
X165820800Y-53340000D01*
X167140000Y-39894000D02*
X167140000Y-52020800D01*
X182380000Y-42410000D02*
X181610000Y-43180000D01*
X165820800Y-53340000D02*
X164600000Y-53340000D01*
X182380000Y-39894000D02*
X182380000Y-42410000D01*
X181610000Y-43180000D02*
X168910000Y-43180000D01*
%TD*%
M02*
